<svg id="Layer_1" data-name="Layer 1" xmlns="http://www.w3.org/2000/svg" viewBox="0 0 894.41 437.31"><defs><style>.cls-1{font-size:188px;font-family:AzonixRegular, Azonix;letter-spacing:-0.17em;}.cls-1,.cls-7,.cls-8,.cls-9{fill:#41b6e6;}.cls-2,.cls-3,.cls-4{fill:#fff;}.cls-2{letter-spacing:0.03em;}.cls-3{letter-spacing:-0.03em;}.cls-4{font-size:86px;font-family:WorkSans-Light, Work Sans;font-weight:300;letter-spacing:0.29em;}.cls-5{letter-spacing:0.27em;}.cls-6{letter-spacing:0.26em;}.cls-8,.cls-9{stroke:#41b6e6;stroke-miterlimit:10;}.cls-8{stroke-width:0.5px;}.cls-9{stroke-width:0.25px;}</style></defs><text class="cls-1" transform="translate(194.64 252.89)">A<tspan class="cls-2" x="105.84" y="0">TL</tspan><tspan class="cls-3" x="393.29" y="0">A</tspan><tspan class="cls-2" x="526.01" y="0">S</tspan></text><text class="cls-4" transform="translate(191.36 345.98)">E<tspan class="cls-5" x="77.57" y="0">V</tspan><tspan x="153.94" y="0">O</tspan><tspan class="cls-6" x="241.83" y="0">L</tspan><tspan x="313.38" y="0">UTION</tspan></text><path class="cls-7" d="M94.88,347.09c-8.95,0-19.83-4-23.67-6.1-5.27-2.92-3.36-10.3-2.95-11.67-1.64-.72-9.52-4.29-9.81-6.54-.22-1.78-6.43-5.75-8.8-7.12l-1.38-.81,1.56.35c.3.06,7.26,1.64,11.05,5.8a28.37,28.37,0,0,0,8.62,6.09c.47-2.55,6-12.39,6.93-14.08-1.91-3.28-1.3-8.55-1.05-10.17a22.31,22.31,0,0,1-9.3,1.9,29.08,29.08,0,0,1-9.26-1.52l-2-.75,2.11.27a26,26,0,0,0,3.34.21,40,40,0,0,0,16.37-4c1.94-7.55,7.67-8.93,7.73-8.94l1.18-.27-1,.71c-10.07,7.39-4.75,22.61-4.7,22.76l0,.12-.06.1c-10.21,15.54-10.7,16.8-8.74,22.39,2.36,6.72,13.94,8.13,23.25,8.13a98.88,98.88,0,0,0,10.42-.56l.68-.09-.47.51c-2.05,2.18-5.45,3.28-10.13,3.28Z"/><path class="cls-7" d="M84.44,290.25c-10.34,7.59-4.78,23-4.78,23C69.32,329,68.91,330.24,70.89,335.91c2.44,6.93,14.44,8.29,23.49,8.29a96.49,96.49,0,0,0,10.45-.56c-2.19,2.33-5.83,3.2-10,3.2-8.76,0-19.69-3.93-23.55-6.07-5.68-3.15-2.77-11.59-2.77-11.59S59,325,58.7,322.75s-8.92-7.31-8.92-7.31,7.13,1.57,10.92,5.73a28.34,28.34,0,0,0,9,6.29c-.29-1.57,7-14.45,7-14.45-2.31-3.77-1-10.59-1-10.59a22.07,22.07,0,0,1-9.63,2.06A28.92,28.92,0,0,1,56.91,303a27.59,27.59,0,0,0,3.37.21,39.82,39.82,0,0,0,16.58-4.08c1.9-7.58,7.58-8.87,7.58-8.87m2.23-1-2.34.53c-.24.06-5.9,1.42-7.89,9a39.66,39.66,0,0,1-16.16,3.92,25.3,25.3,0,0,1-3.3-.21L52.75,302l4,1.5A29.09,29.09,0,0,0,66.07,305a22.73,22.73,0,0,0,9-1.73c-.26,2-.63,6.67,1.08,9.76-1.66,2.95-6,10.88-6.8,13.73a27.56,27.56,0,0,1-8.27-5.91C57.22,316.61,50.18,315,49.88,315l-3.13-.69,2.78,1.61c3.25,1.9,8.49,5.45,8.68,6.94.29,2.29,7.46,5.64,9.75,6.65-.52,1.84-2.07,8.87,3.13,11.75,3.85,2.14,14.79,6.13,23.79,6.13,4.75,0,8.22-1.13,10.31-3.36l1-1-1.37.17a95.07,95.07,0,0,1-10.39.56c-16.71,0-21.74-4.33-23-8-1.87-5.32-1.74-6.26,8.7-22.17l.14-.21-.08-.24a29.66,29.66,0,0,1-1.46-8.54c-.12-6.2,1.92-10.89,6.06-13.93l1.94-1.42Z"/><path class="cls-8" d="M133.49,237.85a27.88,27.88,0,0,1,6.92-11.93,3.2,3.2,0,0,0,.51-2.36s-10.62,10.88-9.68,15.19A50.41,50.41,0,0,1,128,255.69c-3.06,7.53-4.8,11.95-7.92,14.11-1,.72-9.17,3.18-23.84-.14a9.5,9.5,0,0,0,1.4-3.24c.07-1.22-8.78,6.36-8.78,6.36s-14.62.08-19.38,2.55a67,67,0,0,1-15.11,4.78s3.51,1.56,15.76-3.64c4-1.73,20.69-4.28,30.41,2.85,0,0,8.17,9.22,3.55,17.66a184.35,184.35,0,0,1-12.46,18.73A13.65,13.65,0,0,0,90,330.85s-2.81-10.31,5.45-17.52c0,0,3.42,7.68-1.62,18,0,0,7.78-10.47,3.65-20.56,0,0,10-11.61,10.6-17S107,281.92,103,277.84,92,273.6,92,273.6l2.06-1.79s22.73,5.81,29.08-1.53c3.34-3.85,6.12-11.12,8.21-17.09C132.24,250.74,133.49,237.85,133.49,237.85Z"/><path class="cls-7" d="M49.13,324.5c-8.92,0-13.84-3.42-13.89-3.45l-.15-.11,0-.17c0-.1,3.34-10.2.42-16.32-2.79-5.84,3.79-10.05,5.09-10.81-12.43-24.59,5.53-48.18,7.55-50.72-1.8-1.14-12.46-8.16-12.27-12.83a20.28,20.28,0,0,1,1.37-7.26c-.54-1.17-1.07-2.32-1.57-3.46l0-.11,0-.11c.78-1.46,1.61-2.82,2.41-4.14l.59-1,.2.42c.44.91.78,1.58,1,1.94C47.13,207.17,45,199.77,45,199.7l-.15-.48.47.17c1.25.45,2.25.89,2.69,2,.69,1.71-.21,4.9-3,10.65-4.91,10.1-3.64,17.69-3.62,17.77,2.35,6.79,13,11.42,13.07,11.46l.3.13-.2.25C43.3,256.35,38.63,269.93,40.64,282a31.34,31.34,0,0,0,11.83,19.69l.64.42-.89,0c-3.21,0-8.74-5.32-9.66-6.23-4.78,2.21-4.88,8.11-4.87,8.87,4.87,6,.51,15.13,0,16.1.22.79,1.81,2,9.53,2,6.65,0,14.38-.91,14.46-.92l.1.49a42.77,42.77,0,0,1-12.67,2.05Z"/><path class="cls-7" d="M45.19,199.62c2.89,1,4.56,2-.45,12.28s-3.65,17.92-3.65,17.92c2.43,7,13.23,11.65,13.23,11.65-31.14,40.91-2,60.4-2,60.4h-.11c-3.37,0-9.61-6.28-9.61-6.28-5.47,2.39-5.17,9.26-5.17,9.26,5.17,6.27,0,16,0,16,.33,1.78,4.79,2.29,9.8,2.29a144.77,144.77,0,0,0,14.49-.92,42.42,42.42,0,0,1-12.6,2c-8.94,0-13.75-3.4-13.75-3.4s3.4-10.22.4-16.5S41,293.74,41,293.74c-13.39-26.13,7.59-50.88,7.59-50.88S36,235,36.18,230.1s1.4-7.27,1.4-7.27c-.56-1.21-1.1-2.39-1.63-3.56.89-1.67,1.85-3.22,2.76-4.72.71,1.47,1.15,2.29,1.15,2.29,7.68-9.56,5.33-17.22,5.33-17.22m-.77-.81.3,1h0c0,.07,2.06,7.22-4.77,16.15-.2-.38-.47-.92-.79-1.59l-.4-.83-.48.79-.37.6c-.8,1.32-1.62,2.69-2.4,4.15l-.11.21.1.23c.49,1.1,1,2.21,1.53,3.35a20.92,20.92,0,0,0-1.35,7.25c-.19,4.63,9.8,11.38,12.15,12.91a60.75,60.75,0,0,0-8.54,15.34C36,267,33.58,280,40.32,293.54c-1.7,1-7.74,5.25-5,11,2.88,6-.39,16-.42,16.13l-.12.35.3.21c.2.15,5,3.5,14,3.5a42.73,42.73,0,0,0,12.75-2.07l-.21-1a144.37,144.37,0,0,1-14.43.92c-7.48,0-9-1.12-9.26-1.74a23.93,23.93,0,0,0,1.89-5.59c.86-4.28.19-7.95-1.93-10.62,0-1,.22-6.35,4.57-8.48,1.22,1.2,6.53,6.18,9.71,6.18h.14l1.52-.06-1.27-.85a31.1,31.1,0,0,1-11.72-19.53c-2-12,2.66-25.49,13.82-40.16l.39-.51-.59-.25c-.1,0-10.58-4.61-12.93-11.31-.09-.58-1.1-7.92,3.61-17.58,2.87-5.9,3.74-9.05,3-10.85a4.25,4.25,0,0,0-2.84-2.12l-.94-.34Z"/><path class="cls-9" d="M61.13,203.85c.67-4.18,8.41-.38,14.37-9.28,0,0,0,7.5-10.63,10.14,0,0,2,11.3,1.26,12.89,0,0,9.85,2.8,10,12.59,0,0,9.15,4.81,9.63,9.47,0,0,13.42-8.54,27.31-5.59,0,0,3.79,2.17,4.58,4.66a8.65,8.65,0,0,0,3.12-9.47c-.55-1.89,2.76-7.85,3.84-6.7.58.62-2.26,5.41-1.91,8.72.81,7.46-3.47,10.86-3.47,10.86s2.84,9.93-6,16.29a1.58,1.58,0,0,1-1.73-.66s-4.2,4.88-7.89,2.69c0,0-5.22,2.94-7.57,1.5,0,0,.51-1.94-.64-2.06,0,0-4.65,2.56-7.76-.81s.19-5.57.19-5.57-.77,3.38.82,4.57,3.19,1.5,7.64.06c0,0,2.29-.19,1.08,2.25a7.64,7.64,0,0,0,5.79-1.56s3.12,2,6.68-1.88c0,0,3.12-.24,3.25-.87s-.34-3.65-2.28-4.48c0,0-1.77,1.35,1.83,4.85,0,0,9.23-6.69,1.34-17.95,0,0-5-7.13-26.47,3.19,0,0-2.55.57-3.37-.19s2.16-3.31-8.08-8.37c0,0,.63,4-1.28,4.71,0,0,1.25-12-5.82-15.3,0,0-2.58-2-4.48-.79,0,0,.44,4.37-2.55,5.12a41.1,41.1,0,0,0,1.45-14A72,72,0,0,0,61.13,203.85Z"/><path class="cls-8" d="M48,297.63a21,21,0,0,0,16.33,5.06C74.6,301.63,71,304,71,304s-9.49,3.23-21.28-2.66"/><path class="cls-9" d="M130.82,145.23s37.56,27.2,9.93,63.81C140.75,209,158,177.83,130.82,145.23Z"/><path class="cls-9" d="M43.18,184.36s-6.25-34.85,25.69-41.66C68.87,142.7,48.26,147.35,43.18,184.36Z"/><path class="cls-9" d="M124.56,222.55c-1.52-1.46-6.94-.49-10.27-5.67,0,0,1.44,6.87,8.7,6.87Z"/><path class="cls-9" d="M66.17,249.17s-19.6,19-15,25.88c.69,1,1.9.09,1.9.09-3.91-7.78,8.61-18.9,15-25.36C69.05,248.82,69.65,246.44,66.17,249.17Z"/><path class="cls-7" d="M35.74,219.52c-19.6-38.84-1.17-69.16-.37-70.43s22-34.56,59.34-34.56c12.89,0,26.27,4,39.77,11.93,27.22,16,31.77,38.76,30.79,55.09a85,85,0,0,1-8.72,31.89l-.45-.23c.2-.42,19-42.09-12.65-71.81-14.07-13.22-29.78-19.92-46.68-19.92A67.91,67.91,0,0,0,62.47,131c-43.72,27.39-28.08,72-22.25,85l.08.18-.16.12c-1.26.94-2.57,2-4,3.32l-.24.22Z"/><path class="cls-7" d="M94.71,114.78c11.71,0,25,3.29,39.64,11.89,52.48,30.77,22,86.65,22,86.65s19.47-41.91-12.7-72.11c-16.43-15.42-33-20-46.86-20a67.66,67.66,0,0,0-34.44,9.57C18.6,158.2,33.85,202.39,40,216.07c-1.37,1-2.72,2.16-4,3.33-17.23-34.16-5-62.76-.38-70.18,3.75-6,24.73-34.44,59.13-34.44m0-.5C57.24,114.28,36,147.54,35.15,149s-19.29,31.71.37,70.67l.29.58.49-.43c1.43-1.29,2.74-2.38,4-3.31l.32-.24-.16-.36c-3.17-7.07-8.36-21.31-7.49-37.26,1.08-19.8,11-35.74,29.64-47.38a67.57,67.57,0,0,1,34.17-9.5c16.84,0,32.48,6.68,46.51,19.85,16.47,15.46,19,34.06,18.27,46.95a75.8,75.8,0,0,1-5.67,24.58l.89.45a85.26,85.26,0,0,0,8.75-32A58.09,58.09,0,0,0,160.38,153c-5-10.68-13.72-19.67-25.78-26.74-13.54-7.94-27-12-39.89-12Z"/></svg>